<svg xmlns="http://www.w3.org/2000/svg" xmlns:xlink="http://www.w3.org/1999/xlink" width="200" zoomAndPan="magnify" viewBox="0 0 200 1499.999933" height="200" preserveAspectRatio="xMidYMid meet" version="1.0"><defs><filter x="0%" y="0%" width="100%" height="100%" id="37fe8e6c28"><feColorMatrix values="0 0 0 0 1 0 0 0 0 1 0 0 0 0 1 0 0 0 1 0" color-interpolation-filters="sRGB"/></filter><g/><clipPath id="f67106b19b"><path d="M 376.664062 393.738281 L 1035.164062 393.738281 L 1035.164062 1052.238281 L 376.664062 1052.238281 Z M 376.664062 393.738281 " clip-rule="nonzero"/></clipPath><clipPath id="fa38ee113a"><path d="M 0 4.277344 L 1500 4.277344 L 1500 1475.722656 L 0 1475.722656 Z M 0 4.277344 " clip-rule="nonzero"/></clipPath><clipPath id="30bdce5360"><path d="M 0 0.277344 L 1500 0.277344 L 1500 1471.722656 L 0 1471.722656 Z M 0 0.277344 " clip-rule="nonzero"/></clipPath><clipPath id="562d7dd685"><path d="M 33.550781 0.277344 L 1435.09375 0.277344 L 1435.09375 1471.722656 L 33.550781 1471.722656 Z M 33.550781 0.277344 " clip-rule="nonzero"/></clipPath><linearGradient x1="-78.902" gradientTransform="matrix(3.496278, 0, 0, 3.49013, 309.414734, 476.039162)" y1="74.5" x2="321.965" gradientUnits="userSpaceOnUse" y2="74.5" id="01bd8053bb"><stop stop-opacity="1" stop-color="rgb(0%, 0%, 0%)" offset="0"/><stop stop-opacity="1" stop-color="rgb(0%, 0%, 0%)" offset="0.25"/><stop stop-opacity="1" stop-color="rgb(0%, 0%, 0%)" offset="0.3125"/><stop stop-opacity="1" stop-color="rgb(0%, 0%, 0%)" offset="0.328125"/><stop stop-opacity="1" stop-color="rgb(0%, 0%, 0%)" offset="0.335938"/><stop stop-opacity="1" stop-color="rgb(0.454712%, 0.32959%, 0.0488281%)" offset="0.339844"/><stop stop-opacity="1" stop-color="rgb(0.91095%, 0.65918%, 0.0991821%)" offset="0.34375"/><stop stop-opacity="1" stop-color="rgb(1.867676%, 1.353455%, 0.204468%)" offset="0.347656"/><stop stop-opacity="1" stop-color="rgb(2.825928%, 2.047729%, 0.309753%)" offset="0.351562"/><stop stop-opacity="1" stop-color="rgb(3.782654%, 2.742004%, 0.415039%)" offset="0.355469"/><stop stop-opacity="1" stop-color="rgb(4.740906%, 3.436279%, 0.520325%)" offset="0.359375"/><stop stop-opacity="1" stop-color="rgb(5.697632%, 4.130554%, 0.62561%)" offset="0.363281"/><stop stop-opacity="1" stop-color="rgb(6.655884%, 4.824829%, 0.732422%)" offset="0.367188"/><stop stop-opacity="1" stop-color="rgb(7.61261%, 5.519104%, 0.837708%)" offset="0.371094"/><stop stop-opacity="1" stop-color="rgb(8.570862%, 6.213379%, 0.942993%)" offset="0.375"/><stop stop-opacity="1" stop-color="rgb(9.527588%, 6.907654%, 1.048279%)" offset="0.378906"/><stop stop-opacity="1" stop-color="rgb(10.48584%, 7.601929%, 1.153564%)" offset="0.382812"/><stop stop-opacity="1" stop-color="rgb(11.444092%, 8.296204%, 1.25885%)" offset="0.386719"/><stop stop-opacity="1" stop-color="rgb(12.402344%, 8.990479%, 1.364136%)" offset="0.390625"/><stop stop-opacity="1" stop-color="rgb(13.35907%, 9.684753%, 1.469421%)" offset="0.394531"/><stop stop-opacity="1" stop-color="rgb(14.317322%, 10.379028%, 1.574707%)" offset="0.398438"/><stop stop-opacity="1" stop-color="rgb(15.274048%, 11.073303%, 1.679993%)" offset="0.402344"/><stop stop-opacity="1" stop-color="rgb(16.2323%, 11.767578%, 1.785278%)" offset="0.40625"/><stop stop-opacity="1" stop-color="rgb(17.189026%, 12.461853%, 1.890564%)" offset="0.410156"/><stop stop-opacity="1" stop-color="rgb(18.147278%, 13.156128%, 1.99585%)" offset="0.414063"/><stop stop-opacity="1" stop-color="rgb(19.104004%, 13.850403%, 2.101135%)" offset="0.417969"/><stop stop-opacity="1" stop-color="rgb(20.062256%, 14.544678%, 2.206421%)" offset="0.421875"/><stop stop-opacity="1" stop-color="rgb(21.018982%, 15.238953%, 2.311707%)" offset="0.425781"/><stop stop-opacity="1" stop-color="rgb(21.977234%, 15.933228%, 2.416992%)" offset="0.429688"/><stop stop-opacity="1" stop-color="rgb(22.93396%, 16.627502%, 2.522278%)" offset="0.433594"/><stop stop-opacity="1" stop-color="rgb(23.892212%, 17.321777%, 2.629089%)" offset="0.4375"/><stop stop-opacity="1" stop-color="rgb(24.850464%, 18.016052%, 2.734375%)" offset="0.441406"/><stop stop-opacity="1" stop-color="rgb(25.808716%, 18.710327%, 2.839661%)" offset="0.445313"/><stop stop-opacity="1" stop-color="rgb(26.765442%, 19.404602%, 2.944946%)" offset="0.449219"/><stop stop-opacity="1" stop-color="rgb(27.723694%, 20.098877%, 3.050232%)" offset="0.453125"/><stop stop-opacity="1" stop-color="rgb(28.68042%, 20.793152%, 3.155518%)" offset="0.457031"/><stop stop-opacity="1" stop-color="rgb(29.638672%, 21.487427%, 3.260803%)" offset="0.460938"/><stop stop-opacity="1" stop-color="rgb(30.595398%, 22.181702%, 3.366089%)" offset="0.464844"/><stop stop-opacity="1" stop-color="rgb(31.55365%, 22.875977%, 3.471375%)" offset="0.46875"/><stop stop-opacity="1" stop-color="rgb(32.510376%, 23.570251%, 3.57666%)" offset="0.472656"/><stop stop-opacity="1" stop-color="rgb(33.468628%, 24.264526%, 3.681946%)" offset="0.476563"/><stop stop-opacity="1" stop-color="rgb(34.425354%, 24.958801%, 3.787231%)" offset="0.480469"/><stop stop-opacity="1" stop-color="rgb(35.383606%, 25.653076%, 3.892517%)" offset="0.484375"/><stop stop-opacity="1" stop-color="rgb(36.340332%, 26.347351%, 3.997803%)" offset="0.488281"/><stop stop-opacity="1" stop-color="rgb(37.298584%, 27.041626%, 4.103088%)" offset="0.492188"/><stop stop-opacity="1" stop-color="rgb(38.256836%, 27.735901%, 4.208374%)" offset="0.496094"/><stop stop-opacity="1" stop-color="rgb(39.215088%, 28.430176%, 4.31366%)" offset="0.5"/><stop stop-opacity="1" stop-color="rgb(40.171814%, 29.122925%, 4.418945%)" offset="0.503906"/><stop stop-opacity="1" stop-color="rgb(41.130066%, 29.8172%, 4.525757%)" offset="0.507812"/><stop stop-opacity="1" stop-color="rgb(42.086792%, 30.511475%, 4.631042%)" offset="0.511719"/><stop stop-opacity="1" stop-color="rgb(43.045044%, 31.20575%, 4.736328%)" offset="0.515625"/><stop stop-opacity="1" stop-color="rgb(44.00177%, 31.900024%, 4.841614%)" offset="0.519531"/><stop stop-opacity="1" stop-color="rgb(44.960022%, 32.594299%, 4.946899%)" offset="0.523438"/><stop stop-opacity="1" stop-color="rgb(45.916748%, 33.288574%, 5.052185%)" offset="0.527344"/><stop stop-opacity="1" stop-color="rgb(46.875%, 33.982849%, 5.157471%)" offset="0.53125"/><stop stop-opacity="1" stop-color="rgb(47.831726%, 34.677124%, 5.262756%)" offset="0.535156"/><stop stop-opacity="1" stop-color="rgb(48.789978%, 35.371399%, 5.368042%)" offset="0.539062"/><stop stop-opacity="1" stop-color="rgb(49.74823%, 36.065674%, 5.473328%)" offset="0.542969"/><stop stop-opacity="1" stop-color="rgb(50.706482%, 36.759949%, 5.578613%)" offset="0.546875"/><stop stop-opacity="1" stop-color="rgb(51.663208%, 37.454224%, 5.683899%)" offset="0.550781"/><stop stop-opacity="1" stop-color="rgb(52.62146%, 38.148499%, 5.789185%)" offset="0.554688"/><stop stop-opacity="1" stop-color="rgb(53.578186%, 38.842773%, 5.89447%)" offset="0.558594"/><stop stop-opacity="1" stop-color="rgb(54.536438%, 39.537048%, 5.999756%)" offset="0.5625"/><stop stop-opacity="1" stop-color="rgb(55.493164%, 40.231323%, 6.105042%)" offset="0.566406"/><stop stop-opacity="1" stop-color="rgb(56.451416%, 40.925598%, 6.210327%)" offset="0.570312"/><stop stop-opacity="1" stop-color="rgb(57.408142%, 41.619873%, 6.315613%)" offset="0.574219"/><stop stop-opacity="1" stop-color="rgb(58.366394%, 42.314148%, 6.420898%)" offset="0.578125"/><stop stop-opacity="1" stop-color="rgb(59.32312%, 43.008423%, 6.526184%)" offset="0.582031"/><stop stop-opacity="1" stop-color="rgb(60.281372%, 43.702698%, 6.632996%)" offset="0.585938"/><stop stop-opacity="1" stop-color="rgb(61.238098%, 44.396973%, 6.738281%)" offset="0.589844"/><stop stop-opacity="1" stop-color="rgb(62.19635%, 45.091248%, 6.843567%)" offset="0.59375"/><stop stop-opacity="1" stop-color="rgb(63.154602%, 45.785522%, 6.948853%)" offset="0.597656"/><stop stop-opacity="1" stop-color="rgb(64.112854%, 46.479797%, 7.054138%)" offset="0.601562"/><stop stop-opacity="1" stop-color="rgb(65.06958%, 47.174072%, 7.159424%)" offset="0.605469"/><stop stop-opacity="1" stop-color="rgb(66.027832%, 47.868347%, 7.264709%)" offset="0.609375"/><stop stop-opacity="1" stop-color="rgb(66.984558%, 48.562622%, 7.369995%)" offset="0.613281"/><stop stop-opacity="1" stop-color="rgb(67.94281%, 49.256897%, 7.475281%)" offset="0.617188"/><stop stop-opacity="1" stop-color="rgb(68.899536%, 49.951172%, 7.580566%)" offset="0.621094"/><stop stop-opacity="1" stop-color="rgb(69.857788%, 50.645447%, 7.685852%)" offset="0.625"/><stop stop-opacity="1" stop-color="rgb(70.814514%, 51.339722%, 7.791138%)" offset="0.628906"/><stop stop-opacity="1" stop-color="rgb(71.772766%, 52.033997%, 7.896423%)" offset="0.632813"/><stop stop-opacity="1" stop-color="rgb(72.729492%, 52.728271%, 8.001709%)" offset="0.636719"/><stop stop-opacity="1" stop-color="rgb(73.687744%, 53.422546%, 8.106995%)" offset="0.640625"/><stop stop-opacity="1" stop-color="rgb(74.64447%, 54.116821%, 8.21228%)" offset="0.644531"/><stop stop-opacity="1" stop-color="rgb(75.602722%, 54.811096%, 8.317566%)" offset="0.648438"/><stop stop-opacity="1" stop-color="rgb(76.560974%, 55.505371%, 8.422852%)" offset="0.652344"/><stop stop-opacity="1" stop-color="rgb(77.519226%, 56.199646%, 8.529663%)" offset="0.65625"/><stop stop-opacity="1" stop-color="rgb(77.973938%, 56.529236%, 8.578491%)" offset="0.660156"/><stop stop-opacity="1" stop-color="rgb(78.42865%, 56.858826%, 8.628845%)" offset="0.664062"/><stop stop-opacity="1" stop-color="rgb(78.42865%, 56.858826%, 8.628845%)" offset="0.671875"/><stop stop-opacity="1" stop-color="rgb(78.42865%, 56.858826%, 8.628845%)" offset="0.6875"/><stop stop-opacity="1" stop-color="rgb(78.42865%, 56.858826%, 8.628845%)" offset="0.75"/><stop stop-opacity="1" stop-color="rgb(78.42865%, 56.858826%, 8.628845%)" offset="1"/></linearGradient><clipPath id="eeee72bb4a"><rect x="0" width="1500" y="0" height="1472"/></clipPath><clipPath id="02c3ad8f4b"><path d="M 0 0.277344 L 1500 0.277344 L 1500 1471.722656 L 0 1471.722656 Z M 0 0.277344 " clip-rule="nonzero"/></clipPath><clipPath id="99fdfcb9ef"><rect x="0" width="1500" y="0" height="1472"/></clipPath><clipPath id="e49d250b97"><rect x="0" width="1500" y="0" height="1472"/></clipPath><mask id="452888d54c"><g filter="url(#37fe8e6c28)"><g transform="matrix(1, 0, 0, 1, 0, 0.000000000000113687)"><g clip-path="url(#e49d250b97)"><g clip-path="url(#02c3ad8f4b)"><g transform="matrix(1, 0, 0, 1, 0, 0.000000000000113687)"><g clip-path="url(#99fdfcb9ef)"><g fill="#000000" fill-opacity="1"><g transform="translate(510.307451, 874.057155)"><g><path d="M 5.953125 -0.234375 C 5.953125 -0.234375 6.785156 -1.023438 8.453125 -2.609375 C 10.117188 -4.203125 11.785156 -7.378906 13.453125 -12.140625 C 15.117188 -16.910156 15.953125 -23.976562 15.953125 -33.34375 L 15.953125 -309.875 C 15.953125 -319.40625 15.117188 -326.394531 13.453125 -330.84375 C 11.785156 -335.289062 10.117188 -338.1875 8.453125 -339.53125 C 6.785156 -340.882812 5.953125 -341.5625 5.953125 -341.5625 L 54.78125 -341.5625 C 54.78125 -341.5625 53.984375 -340.925781 52.390625 -339.65625 C 50.804688 -338.382812 49.179688 -335.523438 47.515625 -331.078125 C 45.847656 -326.628906 45.015625 -319.644531 45.015625 -310.125 L 45.015625 -33.34375 C 45.015625 -23.976562 45.847656 -16.910156 47.515625 -12.140625 C 49.179688 -7.378906 50.804688 -4.203125 52.390625 -2.609375 C 53.984375 -1.023438 54.78125 -0.234375 54.78125 -0.234375 Z M 5.953125 -0.234375 "/></g></g></g><g fill="#000000" fill-opacity="1"><g transform="translate(632.970947, 874.057155)"><g><path d="M 242.234375 -39.546875 L 242.234375 -309.875 C 242.234375 -319.40625 241.4375 -326.394531 239.84375 -330.84375 C 238.257812 -335.289062 236.632812 -338.148438 234.96875 -339.421875 C 233.300781 -340.691406 232.46875 -341.328125 232.46875 -341.328125 L 257.71875 -341.328125 C 257.71875 -341.328125 256.882812 -340.691406 255.21875 -339.421875 C 253.550781 -338.148438 251.882812 -335.328125 250.21875 -330.953125 C 248.550781 -326.585938 247.71875 -319.644531 247.71875 -310.125 L 247.484375 -0.234375 L 242.234375 -0.234375 C 242.234375 -0.234375 240.25 -3.171875 236.28125 -9.046875 C 232.3125 -14.921875 226.832031 -23.054688 219.84375 -33.453125 C 212.851562 -43.859375 204.789062 -55.847656 195.65625 -69.421875 C 186.53125 -83.003906 176.726562 -97.578125 166.25 -113.140625 C 155.769531 -128.703125 145.050781 -144.617188 134.09375 -160.890625 C 123.144531 -177.171875 112.425781 -193.128906 101.9375 -208.765625 C 91.457031 -224.410156 81.570312 -239.097656 72.28125 -252.828125 C 63 -266.566406 54.785156 -278.753906 47.640625 -289.390625 C 40.492188 -300.035156 34.851562 -308.453125 30.71875 -314.640625 C 26.59375 -320.835938 24.375 -324.09375 24.0625 -324.40625 C 23.738281 -322.5 23.457031 -320.351562 23.21875 -317.96875 C 22.976562 -315.59375 22.859375 -312.976562 22.859375 -310.125 L 22.859375 -33.34375 C 22.859375 -23.976562 23.691406 -16.910156 25.359375 -12.140625 C 27.035156 -7.378906 28.707031 -4.203125 30.375 -2.609375 C 32.039062 -1.023438 32.875 -0.234375 32.875 -0.234375 L 7.625 -0.234375 C 7.625 -0.234375 8.457031 -1.023438 10.125 -2.609375 C 11.789062 -4.203125 13.414062 -7.378906 15 -12.140625 C 16.59375 -16.910156 17.390625 -23.976562 17.390625 -33.34375 L 17.390625 -309.875 C 17.390625 -317.976562 16.4375 -324.332031 14.53125 -328.9375 C 12.625 -333.539062 10.71875 -336.753906 8.8125 -338.578125 C 6.90625 -340.410156 5.953125 -341.328125 5.953125 -341.328125 L 44.78125 -341.328125 Z M 242.234375 -39.546875 "/></g></g></g></g></g></g></g></g></g></mask><clipPath id="f5b89e7f23"><path d="M 33.550781 0.277344 L 1435.09375 0.277344 L 1435.09375 1471.722656 L 33.550781 1471.722656 Z M 33.550781 0.277344 " clip-rule="nonzero"/></clipPath><clipPath id="f2edc7dd35"><rect x="0" width="1500" y="0" height="1472"/></clipPath><clipPath id="a169ba8e07"><rect x="0" width="1500" y="0" height="1472"/></clipPath><clipPath id="32c5854bdc"><rect x="0" width="1500" y="0" height="1480"/></clipPath></defs><g clip-path="url(#f67106b19b)"><path fill="#4b2914" d="M 518.160156 393.738281 L 1035.082031 393.738281 L 1035.082031 1052.160156 L 376.664062 1052.160156 L 376.664062 952.699219 C 378.382812 954.886719 380.113281 957.070312 381.859375 959.242188 L 381.859375 1046.960938 L 1029.871094 1046.960938 L 1029.871094 398.9375 L 515.140625 398.9375 C 516.132812 397.265625 517.097656 395.59375 518.058594 393.910156 Z M 518.160156 393.738281 " fill-opacity="1" fill-rule="evenodd"/></g><g transform="matrix(1, 0, 0, 1, 0, 10)"><g clip-path="url(#32c5854bdc)"><g clip-path="url(#fa38ee113a)"><g transform="matrix(1, 0, 0, 1, 0, 4)"><g clip-path="url(#a169ba8e07)"><g clip-path="url(#30bdce5360)"><g mask="url(#452888d54c)"><g transform="matrix(1, 0, 0, 1, 0, 0.000000000000113687)"><g clip-path="url(#f2edc7dd35)"><g clip-path="url(#f5b89e7f23)"><path fill="url(#01bd8053bb)" d="M 33.550781 0.277344 L 33.550781 1471.722656 L 1435.09375 1471.722656 L 1435.09375 0.277344 Z M 33.550781 0.277344 " fill-rule="nonzero"/></g></g></g></g></g></g></g></g></g></g></svg>