<svg xmlns="http://www.w3.org/2000/svg" xmlns:xlink="http://www.w3.org/1999/xlink" width="2000" zoomAndPan="magnify" viewBox="0 0 1500 1499.999933" height="2000" preserveAspectRatio="xMidYMid meet" version="1.0"><defs><g/></defs><g fill="#7a4900" fill-opacity="1"><g transform="translate(612.647093, 926.31902)"><g><path d="M 242.25 -39.546875 L 242.25 -309.90625 C 242.25 -319.425781 241.453125 -326.410156 239.859375 -330.859375 C 238.273438 -335.304688 236.648438 -338.164062 234.984375 -339.4375 C 233.316406 -340.707031 232.484375 -341.34375 232.484375 -341.34375 L 257.734375 -341.34375 C 257.734375 -341.34375 256.898438 -340.707031 255.234375 -339.4375 C 253.566406 -338.164062 251.898438 -335.347656 250.234375 -330.984375 C 248.566406 -326.617188 247.734375 -319.671875 247.734375 -310.140625 L 247.5 -0.234375 L 242.25 -0.234375 C 242.25 -0.234375 240.265625 -3.171875 236.296875 -9.046875 C 232.328125 -14.921875 226.847656 -23.054688 219.859375 -33.453125 C 212.867188 -43.859375 204.804688 -55.847656 195.671875 -69.421875 C 186.546875 -83.003906 176.742188 -97.578125 166.265625 -113.140625 C 155.785156 -128.703125 145.066406 -144.625 134.109375 -160.90625 C 123.148438 -177.1875 112.429688 -193.144531 101.953125 -208.78125 C 91.472656 -224.425781 81.585938 -239.113281 72.296875 -252.84375 C 63.003906 -266.582031 54.785156 -278.769531 47.640625 -289.40625 C 40.492188 -300.050781 34.851562 -308.46875 30.71875 -314.65625 C 26.59375 -320.851562 24.375 -324.113281 24.0625 -324.4375 C 23.738281 -322.53125 23.457031 -320.382812 23.21875 -318 C 22.988281 -315.613281 22.875 -312.992188 22.875 -310.140625 L 22.875 -33.34375 C 22.875 -23.976562 23.707031 -16.910156 25.375 -12.140625 C 27.039062 -7.378906 28.707031 -4.203125 30.375 -2.609375 C 32.039062 -1.023438 32.875 -0.234375 32.875 -0.234375 L 7.625 -0.234375 C 7.625 -0.234375 8.457031 -1.023438 10.125 -2.609375 C 11.789062 -4.203125 13.414062 -7.378906 15 -12.140625 C 16.59375 -16.910156 17.390625 -23.976562 17.390625 -33.34375 L 17.390625 -309.90625 C 17.390625 -318 16.4375 -324.347656 14.53125 -328.953125 C 12.625 -333.554688 10.71875 -336.769531 8.8125 -338.59375 C 6.90625 -340.425781 5.953125 -341.34375 5.953125 -341.34375 L 44.78125 -341.34375 Z M 242.25 -39.546875 "/></g></g></g><g fill="#7a4900" fill-opacity="1"><g transform="translate(519.460645, 926.31902)"><g><path d="M 5.953125 -0.234375 C 5.953125 -0.234375 6.785156 -1.023438 8.453125 -2.609375 C 10.117188 -4.203125 11.785156 -7.378906 13.453125 -12.140625 C 15.117188 -16.910156 15.953125 -23.976562 15.953125 -33.34375 L 15.953125 -309.90625 C 15.953125 -319.425781 15.117188 -326.410156 13.453125 -330.859375 C 11.785156 -335.304688 10.117188 -338.203125 8.453125 -339.546875 C 6.785156 -340.898438 5.953125 -341.578125 5.953125 -341.578125 L 54.78125 -341.578125 C 54.78125 -341.578125 53.984375 -340.941406 52.390625 -339.671875 C 50.804688 -338.398438 49.179688 -335.539062 47.515625 -331.09375 C 45.847656 -326.65625 45.015625 -319.671875 45.015625 -310.140625 L 45.015625 -33.34375 C 45.015625 -23.976562 45.847656 -16.910156 47.515625 -12.140625 C 49.179688 -7.378906 50.804688 -4.203125 52.390625 -2.609375 C 53.984375 -1.023438 54.78125 -0.234375 54.78125 -0.234375 Z M 5.953125 -0.234375 "/></g></g></g></svg>